<svg xmlns="http://www.w3.org/2000/svg" width="300" height="200" viewBox="0 0 300 200"><rect class="outlines" x="1" y="2" width="298" height="20" fill="#fff" stroke="#000" stroke-width="2px"/><rect class="outlines" x="1" y="21" width="298" height="178" fill="#f1f1f1" stroke="#000" stroke-width="2px"/><rect class="outlines" x="22" y="35" width="97" height="147.5" fill="#fff" stroke="#000" stroke-width="2px"/><rect class="outlines" x="135" y="35" width="145" height="67.5" fill="#fff" stroke="#000" stroke-width="2px"/><rect class="outlines" x="135" y="110" width="145" height="72.6" fill="#fff" stroke="#000" stroke-width="2px"/><circle cx="265" cy="11" r="3.5" fill="none" stroke="#525252" stroke-width="1px"/><circle cx="275" cy="11" r="3.5" fill="none" stroke="#525252" stroke-width="1px"/><circle cx="285" cy="11" r="3.5" fill="#525252" stroke="#525252" stroke-width="1px"/><rect class="header-element" x="35" y="50" width="50" height="5" stroke="none" fill="#252525"/><rect class="sub-element" x="35" y="60" width="70" height="5" stroke="none" fill="#646464"/><rect class="sub-element" x="35" y="70" width="70" height="5" stroke="none" fill="#646464"/><path class="header-element" stroke="#525252" stroke-width="1.5px" d="M35,100 L 105,100"/><path class="accent-element" stroke="#d9d9d9" stroke-width="1.5px" d="M35,115 L 105,115"/><path class="accent-element" stroke="#d9d9d9" stroke-width="1.5px" d="M35,130 L 105,130"/><path class="accent-element" stroke="#d9d9d9" stroke-width="1.5px" d="M35,145 L 105,145"/><rect class="header-element" x="35" y="92.5" width="15" height="3" stroke="none" fill="#5252525"/><rect class="header-element" x="60" y="92.5" width="15" height="3" stroke="none" fill="#5252525"/><rect class="header-element" x="85" y="92.5" width="15" height="3" stroke="none" fill="#5252525"/><rect class="sub-element" x="35" y="107.5" width="15" height="3" stroke="none" fill="#636363"/><rect class="sub-element" x="35" y="122.5" width="15" height="3" stroke="none" fill="#636363"/><rect class="sub-element" x="35" y="137.5" width="15" height="3" stroke="none" fill="#636363"/><rect class="sub-element" x="35" y="152.5" width="15" height="3" stroke="none" fill="#636363"/><rect class="sub-element" x="60" y="107.5" width="15" height="3" stroke="none" fill="#636363"/><rect class="sub-element" x="60" y="122.5" width="15" height="3" stroke="none" fill="#636363"/><rect class="sub-element" x="60" y="137.5" width="15" height="3" stroke="none" fill="#636363"/><rect class="sub-element" x="60" y="152.5" width="15" height="3" stroke="none" fill="#636363"/><rect class="sub-element" x="85" y="107.5" width="15" height="3" stroke="none" fill="#636363"/><rect class="sub-element" x="85" y="122.5" width="15" height="3" stroke="none" fill="#636363"/><rect class="sub-element" x="85" y="137.5" width="15" height="3" stroke="none" fill="#636363"/><rect class="sub-element" x="85" y="152.5" width="15" height="3" stroke="none" fill="#636363"/><path class="header-element" stroke="#252525" stroke-width="1.5px" d="M150,40 L 150,90 M150,90 270.5,90"/><path class="header-element" stroke="#252525" stroke-width="1.5px" d="M148,40.5 L 150,40.5 M148,50.5 L 150,50.5 M148,60.5 L 150,60.5 M148,70.5 L 150,70.5 M148,80.5 L 150,80.5 M148,90 L 150,90 M150,92 L 150,90 M170,92 L 170,90 M190,92 L 190,90  M210,92 L 210,90 M230,92 L 230,90 M250,92 L 250,90 M270,92 L 270,90"/><path class="primary-element" fill="none" stroke="#525252" stroke-width="2px" d="M150,60.5 L 170,80 L 230,55 L 250,55 L 270,60"/><path class="primary-element" fill="none" stroke="#36897f" stroke-width="2px" d="M150,80.5 L 190,60.5 L 230,80.5 250,80.5 270,75.5"/><path class="header-element" stroke="#525252" stroke-width="1.5px" d="M150,119.7 L 150,170 M150,170 202.5,170"/><path class="header-element" stroke="#525252" stroke-width="1.5px" d="M148,120.5 L 150,120.5 M148,130.5 L 150,130.5 M148,140.5 L 150,140.5 M148,150.5 L 150,150.5 M148,160.5 L 150,160.5 M148,170 L 150,170"/><rect class="primary-element" x="155" y="129.5" width="10" height="40" fill="#36897f" stroke="none"/><rect class="primary-element" x="170" y="149.5" width="10" height="20" fill="#36897f" stroke="none"/><rect class="primary-element" x="185" y="139.5" width="10" height="30" fill="#36897f" stroke="none"/><path class="header-element" stroke="#525252" stroke-width="1.5px" d="M222,119.7 L 222,170 M222,170 272.5,170"/><path class="header-element" stroke="#525252" stroke-width="1.5px" d="M220,120.5 L 222,120.5 M220,130.5 L 222,130.5 M220,140.5 L 222,140.5 M220,150.5 L 222,150.5 M220,160.5 L 222,160.5 M220,170 L 222,170"/><rect class="primary-element" x="227" y="149.5" width="10" height="20" fill="#525252" stroke="none"/><rect class="primary-element" x="242" y="149.5" width="10" height="20" fill="#525252" stroke="none"/><rect class="primary-element" x="257" y="129.5" width="10" height="40" fill="#525252" stroke="none"/></svg>