<svg width="100" height="102" viewbox="0 0 100 100" preserveAspectRatio="xMinYMax" id="heckinDoggo"><path stroke="#DBA159" stroke-width="1px" fill="rgb(237,208,172)" stroke-linejoin="round" d="M25,60 Q30,80 30,90 Q50,100 70,90 Q70,80 75,60 Z"/><path stroke="#DBA159" stroke-width="1px" fill="rgb(237,208,172)" stroke-linejoin="round" d="M50,0 Q65,0 80,10 Q90,20 95,40 L85,60 80,40 L85,60 80,40 80,65 Q82.5,80.5 53,71 L47,71 Q17.5,80.5 20,65 L20,40 M20,40 15,60 5,40 Q10,20 20,10 Q35,0 50,0 M25,15 20,40 Z M75,15 80,40 Z"/><circle cx="35" cy="30" r="7" fill="white" stroke="none"/><circle cx="36" cy="33" r="2.5" fill="#664C43" stroke="#664C43"/><circle cx="65" cy="30" r="7" fill="white" stroke="none"/><circle cx="64" cy="33" r="2.5" fill="#664C43" stroke="#664C43"/><path stroke="#873D48" stroke-width="1px" fill="rgb(171,119,127)" stroke-linejoin="round" d="M40,69.5 C45,90 55,90 60,69.5 L40,69.5 M50,70 50,80 Z"/><path stroke="red" fill="rgb(255,155,155)" stroke-linejoin="round" d="M30,90 30,95 70,95 70,90 Z"/><circle stroke="none" fill="gold" cx="50" cy="95" r="4"/><path stroke="#F7FFDD" stroke-width="1px" fill="rgb(245,250,215)" stroke-linejoin="round" d="M50,30 Q70,40 80,60 Q81,65 80,70 Q73,82.5 60,70 L50,60 40,70 Q27,82.5 20,70 Q19,65 20,60 Q30,40 50,30 Z"/><path stroke="black" stroke-width="1px" fill="black" fill-opacity="0.75" stroke-linejoin="round" d="M40,70 50,60 60,70 Z M50,55 50,60 Z M50,45 55,50 50,55 45,50 Z" /><circle cx="40" cy="60" r="1"/><circle cx="40" cy="65" r="1"/><circle cx="45" cy="55" r="1"/><circle cx="45" cy="60" r="1"/><circle cx="35" cy="62.5" r="1"/><circle cx="60" cy="60" r="1"/><circle cx="60" cy="65" r="1"/><circle cx="55" cy="55" r="1"/><circle cx="55" cy="60" r="1"/><circle cx="65" cy="62.5" r="1"/></svg>